<svg width="30" height="31" viewBox="0 0 30 31" fill="none" xmlns="http://www.w3.org/2000/svg">
<rect x="1" y="3.23169" width="28" height="26.2683" rx="4" stroke="black" stroke-width="2"/>
<line x1="8.89453" y1="1" x2="8.89453" y2="4.71875" stroke="black" stroke-width="2" stroke-linecap="round"/>
<line x1="21.5269" y1="1" x2="21.5269" y2="4.71875" stroke="black" stroke-width="2" stroke-linecap="round"/>
<line x1="1.9375" y1="8.53125" x2="28.0625" y2="8.53125" stroke="black" stroke-width="2" stroke-linecap="round"/>
<mask id="path-5-inside-1_492_1447" fill="white">
<ellipse cx="6.93359" cy="16.3077" rx="1.40625" ry="1.42969"/>
</mask>
<ellipse cx="6.93359" cy="16.3077" rx="1.40625" ry="1.42969" fill="black"/>
<path d="M6.33984 16.3077C6.33984 16.0241 6.57464 15.7374 6.93359 15.7374V19.7374C8.84585 19.7374 10.3398 18.1706 10.3398 16.3077H6.33984ZM6.93359 15.7374C7.29255 15.7374 7.52734 16.0241 7.52734 16.3077H3.52734C3.52734 18.1706 5.02134 19.7374 6.93359 19.7374V15.7374ZM7.52734 16.3077C7.52734 16.5914 7.29255 16.8781 6.93359 16.8781V12.8781C5.02134 12.8781 3.52734 14.4449 3.52734 16.3077H7.52734ZM6.93359 16.8781C6.57464 16.8781 6.33984 16.5914 6.33984 16.3077H10.3398C10.3398 14.4449 8.84585 12.8781 6.93359 12.8781V16.8781Z" fill="black" mask="url(#path-5-inside-1_492_1447)"/>
<mask id="path-7-inside-2_492_1447" fill="white">
<ellipse cx="14.8271" cy="16.3077" rx="1.40625" ry="1.42969"/>
</mask>
<ellipse cx="14.8271" cy="16.3077" rx="1.40625" ry="1.42969" fill="black"/>
<path d="M14.2334 16.3077C14.2334 16.0241 14.4682 15.7374 14.8271 15.7374V19.7374C16.7394 19.7374 18.2334 18.1706 18.2334 16.3077H14.2334ZM14.8271 15.7374C15.1861 15.7374 15.4209 16.0241 15.4209 16.3077H11.4209C11.4209 18.1706 12.9149 19.7374 14.8271 19.7374V15.7374ZM15.4209 16.3077C15.4209 16.5914 15.1861 16.8781 14.8271 16.8781V12.8781C12.9149 12.8781 11.4209 14.4449 11.4209 16.3077H15.4209ZM14.8271 16.8781C14.4682 16.8781 14.2334 16.5914 14.2334 16.3077H18.2334C18.2334 14.4449 16.7394 12.8781 14.8271 12.8781V16.8781Z" fill="black" mask="url(#path-7-inside-2_492_1447)"/>
<mask id="path-9-inside-3_492_1447" fill="white">
<ellipse cx="22.7217" cy="16.3077" rx="1.40625" ry="1.42969"/>
</mask>
<ellipse cx="22.7217" cy="16.3077" rx="1.40625" ry="1.42969" fill="black"/>
<path d="M22.1279 16.3077C22.1279 16.0241 22.3627 15.7374 22.7217 15.7374V19.7374C24.6339 19.7374 26.1279 18.1706 26.1279 16.3077H22.1279ZM22.7217 15.7374C23.0806 15.7374 23.3154 16.0241 23.3154 16.3077H19.3154C19.3154 18.1706 20.8094 19.7374 22.7217 19.7374V15.7374ZM23.3154 16.3077C23.3154 16.5914 23.0806 16.8781 22.7217 16.8781V12.8781C20.8094 12.8781 19.3154 14.4449 19.3154 16.3077H23.3154ZM22.7217 16.8781C22.3627 16.8781 22.1279 16.5914 22.1279 16.3077H26.1279C26.1279 14.4449 24.6339 12.8781 22.7217 12.8781V16.8781Z" fill="black" mask="url(#path-9-inside-3_492_1447)"/>
<mask id="path-11-inside-4_492_1447" fill="white">
<ellipse cx="6.93359" cy="23.0029" rx="1.40625" ry="1.42969"/>
</mask>
<ellipse cx="6.93359" cy="23.0029" rx="1.40625" ry="1.42969" fill="black"/>
<path d="M6.33984 23.0029C6.33984 22.7192 6.57464 22.4326 6.93359 22.4326V26.4326C8.84585 26.4326 10.3398 24.8657 10.3398 23.0029H6.33984ZM6.93359 22.4326C7.29255 22.4326 7.52734 22.7192 7.52734 23.0029H3.52734C3.52734 24.8657 5.02134 26.4326 6.93359 26.4326V22.4326ZM7.52734 23.0029C7.52734 23.2865 7.29255 23.5732 6.93359 23.5732V19.5732C5.02134 19.5732 3.52734 21.14 3.52734 23.0029H7.52734ZM6.93359 23.5732C6.57464 23.5732 6.33984 23.2865 6.33984 23.0029H10.3398C10.3398 21.14 8.84585 19.5732 6.93359 19.5732V23.5732Z" fill="black" mask="url(#path-11-inside-4_492_1447)"/>
<mask id="path-13-inside-5_492_1447" fill="white">
<ellipse cx="14.8271" cy="23.0029" rx="1.40625" ry="1.42969"/>
</mask>
<ellipse cx="14.8271" cy="23.0029" rx="1.40625" ry="1.42969" fill="black"/>
<path d="M14.2334 23.0029C14.2334 22.7192 14.4682 22.4326 14.8271 22.4326V26.4326C16.7394 26.4326 18.2334 24.8657 18.2334 23.0029H14.2334ZM14.8271 22.4326C15.1861 22.4326 15.4209 22.7192 15.4209 23.0029H11.4209C11.4209 24.8657 12.9149 26.4326 14.8271 26.4326V22.4326ZM15.4209 23.0029C15.4209 23.2865 15.1861 23.5732 14.8271 23.5732V19.5732C12.9149 19.5732 11.4209 21.14 11.4209 23.0029H15.4209ZM14.8271 23.5732C14.4682 23.5732 14.2334 23.2865 14.2334 23.0029H18.2334C18.2334 21.14 16.7394 19.5732 14.8271 19.5732V23.5732Z" fill="black" mask="url(#path-13-inside-5_492_1447)"/>
<mask id="path-15-inside-6_492_1447" fill="white">
<ellipse cx="22.7217" cy="23.0029" rx="1.40625" ry="1.42969"/>
</mask>
<ellipse cx="22.7217" cy="23.0029" rx="1.40625" ry="1.42969" fill="black"/>
<path d="M22.1279 23.0029C22.1279 22.7192 22.3627 22.4326 22.7217 22.4326V26.4326C24.6339 26.4326 26.1279 24.8657 26.1279 23.0029H22.1279ZM22.7217 22.4326C23.0806 22.4326 23.3154 22.7192 23.3154 23.0029H19.3154C19.3154 24.8657 20.8094 26.4326 22.7217 26.4326V22.4326ZM23.3154 23.0029C23.3154 23.2865 23.0806 23.5732 22.7217 23.5732V19.5732C20.8094 19.5732 19.3154 21.14 19.3154 23.0029H23.3154ZM22.7217 23.5732C22.3627 23.5732 22.1279 23.2865 22.1279 23.0029H26.1279C26.1279 21.14 24.6339 19.5732 22.7217 19.5732V23.5732Z" fill="black" mask="url(#path-15-inside-6_492_1447)"/>
</svg>
