<svg width="16" height="20" viewBox="0 0 16 20" fill="none" xmlns="http://www.w3.org/2000/svg">
<mask id="path-1-inside-1_476_1838" fill="white">
<path d="M16 7.46667C16 11.5904 10.2857 20 8 20C5.71429 20 0 11.5904 0 7.46667C0 3.34294 3.58172 0 8 0C12.4183 0 16 3.34294 16 7.46667Z"/>
</mask>
<path d="M15 7.46667C15 8.30175 14.7012 9.45619 14.1487 10.7793C13.6047 12.0819 12.8499 13.4654 12.0206 14.7319C11.1894 16.0012 10.3034 17.1223 9.50896 17.9127C9.11066 18.309 8.75702 18.6004 8.46414 18.7863C8.31894 18.8784 8.20298 18.9355 8.11627 18.9679C8.02804 19.0009 7.9926 19 8 19V21C8.56617 21 9.09992 20.7516 9.53586 20.4749C9.99298 20.1848 10.4608 19.787 10.9196 19.3305C11.8395 18.4152 12.8106 17.1761 13.6937 15.8276C14.5787 14.4762 15.3953 12.9841 15.9942 11.5501C16.5845 10.1366 17 8.69345 17 7.46667H15ZM8 19C8.0074 19 7.97196 19.0009 7.88373 18.9679C7.79702 18.9355 7.68106 18.8784 7.53586 18.7863C7.24298 18.6004 6.88934 18.309 6.49104 17.9127C5.69664 17.1223 4.81065 16.0012 3.97945 14.7319C3.15011 13.4654 2.39531 12.0819 1.85134 10.7793C1.29877 9.45619 1 8.30175 1 7.46667H-1C-1 8.69345 -0.584482 10.1366 0.00580699 11.5501C0.604694 12.9841 1.42132 14.4762 2.30627 15.8276C3.18936 17.1761 4.16051 18.4152 5.08039 19.3305C5.53923 19.787 6.00702 20.1848 6.46414 20.4749C6.90008 20.7516 7.43383 21 8 21V19ZM1 7.46667C1 3.95909 4.0679 1 8 1V-1C3.09554 -1 -1 2.72679 -1 7.46667H1ZM8 1C11.9321 1 15 3.95909 15 7.46667H17C17 2.72679 12.9045 -1 8 -1V1Z" fill="black" mask="url(#path-1-inside-1_476_1838)"/>
<path d="M11.5 7.46667C11.5 9.22046 9.96605 10.7 8 10.7C6.03395 10.7 4.5 9.22046 4.5 7.46667C4.5 5.71288 6.03395 4.23334 8 4.23334C9.96605 4.23334 11.5 5.71288 11.5 7.46667Z" stroke="black"/>
</svg>
