<svg width="26" height="33" viewBox="0 0 26 33" fill="none" xmlns="http://www.w3.org/2000/svg">
<circle cx="13" cy="9" r="8" stroke="#273C83" stroke-width="2"/>
<path d="M0.0108458 31.8531C-0.0702742 32.3994 0.306824 32.908 0.853119 32.9891C1.39941 33.0702 1.90803 32.6931 1.98915 32.1468L0.0108458 31.8531ZM24.0239 32.2175C24.1441 32.7565 24.6784 33.0961 25.2175 32.976C25.7566 32.8559 26.0962 32.3215 25.9761 31.7825L24.0239 32.2175ZM13 18.1554L12.8794 19.1481C12.9646 19.1584 13.0508 19.1578 13.1359 19.1461L13 18.1554ZM1.98915 32.1468C3.07076 24.8629 5.93643 21.7029 8.33969 20.3054C9.56316 19.594 10.721 19.3066 11.5678 19.1965C11.991 19.1414 12.334 19.131 12.5645 19.1337C12.6797 19.135 12.7663 19.1395 12.8203 19.1433C12.8472 19.1452 12.866 19.1468 12.876 19.1478C12.8811 19.1483 12.8839 19.1486 12.8845 19.1487C12.8848 19.1487 12.8845 19.1487 12.8837 19.1486C12.8832 19.1485 12.8827 19.1485 12.882 19.1484C12.8816 19.1483 12.881 19.1483 12.8808 19.1482C12.8801 19.1482 12.8794 19.1481 13 18.1554C13.1206 17.1627 13.1198 17.1626 13.119 17.1625C13.1187 17.1624 13.1178 17.1623 13.1171 17.1623C13.1158 17.1621 13.1144 17.1619 13.1128 17.1617C13.1096 17.1614 13.1058 17.1609 13.1013 17.1605C13.0925 17.1595 13.0813 17.1583 13.0678 17.157C13.0407 17.1544 13.0044 17.1513 12.9592 17.1481C12.8691 17.1418 12.7436 17.1356 12.5873 17.1338C12.275 17.1302 11.8374 17.1446 11.3099 17.2132C10.2555 17.3503 8.83185 17.7057 7.33432 18.5765C4.29559 20.3435 1.16125 24.1058 0.0108458 31.8531L1.98915 32.1468ZM13 18.1554C13.1359 19.1461 13.1351 19.1462 13.1343 19.1463C13.1341 19.1463 13.1333 19.1464 13.1329 19.1465C13.132 19.1466 13.1313 19.1467 13.1306 19.1468C13.1294 19.147 13.1286 19.1471 13.1284 19.1471C13.1279 19.1471 13.1293 19.147 13.1328 19.1466C13.1396 19.1458 13.1541 19.1444 13.176 19.1427C13.2197 19.1392 13.2924 19.1349 13.391 19.1337C13.5882 19.1311 13.8872 19.141 14.2623 19.1947C15.011 19.3019 16.0634 19.5837 17.2214 20.2935C19.513 21.6982 22.3913 24.8904 24.0239 32.2175L25.9761 31.7825C24.2594 24.0783 21.1376 20.3482 18.2666 18.5884C16.8433 17.7159 15.5236 17.3549 14.5457 17.2149C14.0575 17.145 13.6545 17.1301 13.3655 17.1338C13.221 17.1357 13.1046 17.1421 13.02 17.1488C12.9776 17.1521 12.9432 17.1554 12.9171 17.1583C12.904 17.1597 12.893 17.161 12.8842 17.162C12.8798 17.1626 12.8759 17.1631 12.8725 17.1635C12.8709 17.1637 12.8693 17.1639 12.8679 17.1641C12.8672 17.1642 12.8662 17.1644 12.8659 17.1644C12.865 17.1645 12.8641 17.1646 13 18.1554Z" fill="#273C83"/>
</svg>
