<svg width="32" height="35" viewBox="0 0 32 35" fill="none" xmlns="http://www.w3.org/2000/svg">
<mask id="path-1-inside-1_521_1988" fill="white">
<path d="M17.6221 19.9711L19.099 18.6225L28.7865 29.2316C29.1589 29.6395 29.1302 30.272 28.7223 30.6444C28.3145 31.0168 27.682 30.9881 27.3096 30.5802L17.6221 19.9711Z"/>
</mask>
<path d="M17.6221 19.9711L16.2735 18.4942L14.7966 19.8428L16.1452 21.3197L17.6221 19.9711ZM19.099 18.6225L20.5759 17.2739L19.2273 15.7969L17.7504 17.1456L19.099 18.6225ZM18.9707 21.448L20.4476 20.0994L17.7504 17.1456L16.2735 18.4942L18.9707 21.448ZM17.6221 19.9711L27.3096 30.5802L30.2634 27.883L20.5759 17.2739L17.6221 19.9711ZM28.7865 29.2316L19.099 18.6225L16.1452 21.3197L25.8327 31.9288L28.7865 29.2316ZM27.3737 29.1675C27.7816 28.7951 28.4141 28.8238 28.7865 29.2316L25.8327 31.9288C26.9499 33.1523 28.8474 33.2385 30.0709 32.1213L27.3737 29.1675ZM27.3096 30.5802C26.9372 30.1724 26.9659 29.5399 27.3737 29.1675L30.0709 32.1213C31.2944 31.0041 31.3806 29.1065 30.2634 27.883L27.3096 30.5802Z" fill="#273C83" mask="url(#path-1-inside-1_521_1988)"/>
<circle cx="12.499" cy="12.5" r="9.5" stroke="#273C83" stroke-width="2"/>
</svg>
